<svg width="14" height="18" viewBox="0 0 14 18" fill="none" xmlns="http://www.w3.org/2000/svg">
<path fill-rule="evenodd" clip-rule="evenodd" d="M2.5 3.75C2.08579 3.75 1.75 4.08579 1.75 4.5V15C1.75 15.4142 2.08579 15.75 2.5 15.75H11.5C11.9142 15.75 12.25 15.4142 12.25 15V4.5C12.25 4.08579 11.9142 3.75 11.5 3.75H10C9.58579 3.75 9.25 3.41421 9.25 3C9.25 2.58579 9.58579 2.25 10 2.25H11.5C12.7426 2.25 13.75 3.25736 13.75 4.5V15C13.75 16.2426 12.7426 17.25 11.5 17.25H2.5C1.25736 17.25 0.25 16.2426 0.25 15V4.5C0.25 3.25736 1.25736 2.25 2.5 2.25H4C4.41421 2.25 4.75 2.58579 4.75 3C4.75 3.41421 4.41421 3.75 4 3.75H2.5Z" fill="#4D4D4D"/>
<path fill-rule="evenodd" clip-rule="evenodd" d="M3.25 2.25C3.25 1.42157 3.92157 0.75 4.75 0.75H9.25C10.0784 0.75 10.75 1.42157 10.75 2.25V3.75C10.75 4.57843 10.0784 5.25 9.25 5.25H4.75C3.92157 5.25 3.25 4.57843 3.25 3.75V2.25ZM9.25 2.25H4.75V3.75H9.25V2.25Z" fill="#4D4D4D"/>
</svg>
