<svg width="18" height="17" viewBox="0 0 18 17" fill="none" xmlns="http://www.w3.org/2000/svg">
<path d="M16.6851 5.87972C16.6203 5.72219 16.49 5.60072 16.3288 5.54626C16.1676 5.49179 15.9902 5.50945 15.8437 5.59558C15.6965 5.6817 15.5935 5.82746 15.5618 5.99456C15.5301 6.16166 15.5728 6.33465 15.6781 6.46862C15.9306 6.87348 16.0653 7.34018 16.0668 7.81718C16.0719 7.90183 16.0719 7.98575 16.0668 8.07041C16.0189 8.49148 15.8717 8.89487 15.6369 9.24821L15.5544 9.36598C15.1047 9.94457 14.5364 10.4201 13.8879 10.7617H13.829L13.7701 10.7911C12.2978 11.5589 10.66 11.9534 9.00012 11.9395C7.34384 11.966 5.70532 11.5861 4.23016 10.8323L4.17127 10.8029L4.09471 10.7617C3.45797 10.4157 2.90147 9.93795 2.46348 9.3601L2.39281 9.25998C2.15505 8.90738 2.0034 8.50399 1.95113 8.08219C1.94009 7.99459 1.9342 7.90552 1.93346 7.8172C1.93346 5.58523 5.17249 3.69492 9.00022 3.69492C9.41538 3.69492 9.82981 3.71627 10.2428 3.7597C10.5682 3.79356 10.8597 3.55801 10.8935 3.23264C10.9274 2.90726 10.6918 2.61577 10.3665 2.58191C9.91226 2.53627 9.45661 2.51492 9.00022 2.51713C4.37743 2.51713 0.755669 4.87272 0.755669 7.8172V11.3506C0.748308 11.4742 0.748308 11.5979 0.755669 11.7216C0.833698 12.3915 1.08325 13.0304 1.48002 13.5766C2.01297 14.3046 2.69829 14.9075 3.48811 15.3433C5.18413 16.2414 7.08179 16.6911 9.00018 16.6507C10.9148 16.6808 12.8059 16.223 14.4945 15.3198C15.2844 14.884 15.9697 14.2811 16.5026 13.5531C16.9009 13.0172 17.1563 12.3893 17.2446 11.7275C17.252 11.6016 17.252 11.4765 17.2446 11.3506V7.81722C17.2395 7.13263 17.0458 6.46194 16.6851 5.87972ZM16.0668 11.3505C16.0719 11.4352 16.0719 11.5191 16.0668 11.6037C16.0086 12.0705 15.832 12.5143 15.5544 12.8934C15.1128 13.472 14.5526 13.9498 13.9114 14.295C12.4009 15.0974 10.7108 15.503 9.0001 15.4728C7.29157 15.5023 5.60373 15.0966 4.09465 14.295C3.4579 13.9505 2.90214 13.475 2.46341 12.8993C2.1778 12.518 1.99524 12.0697 1.93341 11.5979C1.92825 11.5154 1.92825 11.433 1.93341 11.3506V10.5673C2.05708 10.6969 2.18664 10.8206 2.32798 10.9442L2.43987 11.0384C2.55765 11.1364 2.6813 11.2328 2.81088 11.327L2.95222 11.433C3.123 11.5508 3.29967 11.6627 3.48812 11.7746L3.66479 11.8688C5.31443 12.7153 7.14672 13.1445 9.00009 13.1172C10.8581 13.143 12.6946 12.7124 14.3473 11.8629L14.4945 11.7863C14.6888 11.6745 14.8655 11.5567 15.0422 11.4389L15.1835 11.3506C15.3167 11.2563 15.4426 11.1584 15.5604 11.0561L15.6723 10.9619C15.8136 10.8382 15.9432 10.7145 16.0668 10.585L16.0668 11.3505Z" fill="#4D4D4D"/>
<path d="M9.58896 4.87263C9.58896 4.54726 9.32544 4.28373 9.00007 4.28373C8.6747 4.28373 8.41117 4.54726 8.41117 4.87263C7.43581 4.87263 6.64448 5.66395 6.64448 6.63932C6.64448 7.61468 7.43581 8.406 8.41117 8.406V9.5838H7.23338C6.90801 9.5838 6.64448 9.84732 6.64448 10.1727C6.64448 10.4981 6.90801 10.7616 7.23338 10.7616H8.41117C8.41117 11.087 8.6747 11.3505 9.00007 11.3505C9.32544 11.3505 9.58896 11.087 9.58896 10.7616C10.5643 10.7616 11.3557 9.97026 11.3557 8.9949C11.3557 8.01954 10.5643 7.22821 9.58896 7.22821V6.05042H10.7668C11.0921 6.05042 11.3557 5.7869 11.3557 5.46152C11.3557 5.13615 11.0921 4.87263 10.7668 4.87263H9.58896ZM10.1779 8.9949C10.1779 9.15096 10.116 9.30113 10.0056 9.41154C9.89519 9.52196 9.74502 9.58379 9.58897 9.58379V8.406C9.74503 8.406 9.8952 8.46783 10.0056 8.57825C10.116 8.68867 10.1779 8.83885 10.1779 8.9949ZM8.41117 7.22821C8.0858 7.22821 7.82228 6.96469 7.82228 6.63932C7.82228 6.31394 8.0858 6.05042 8.41117 6.05042V7.22821Z" fill="#4D4D4D"/>
<path d="M12.5334 3.69485C12.6902 3.69559 12.8404 3.63449 12.9516 3.52407L13.7112 2.75851V6.05048C13.7112 6.37586 13.9747 6.63938 14.3001 6.63938C14.6255 6.63938 14.889 6.37586 14.889 6.05048V2.75851L15.6487 3.51818C15.882 3.7184 16.2309 3.70515 16.4481 3.48726C16.666 3.27011 16.6793 2.92118 16.479 2.68783L14.7123 0.921143C14.4827 0.692952 14.1117 0.692952 13.882 0.921143L12.1153 2.68783C11.9453 2.8564 11.8945 3.1111 11.9865 3.33194C12.0778 3.55278 12.2942 3.69632 12.5334 3.69485Z" fill="#4D4D4D"/>
<path fill-rule="evenodd" clip-rule="evenodd" d="M13.7498 0.788135C14.0526 0.487285 14.5417 0.487293 14.8445 0.78813L16.6167 2.5603L16.6213 2.56573C16.8853 2.87335 16.868 3.33328 16.5807 3.61984C16.2941 3.90715 15.8342 3.92442 15.5266 3.66047L15.5212 3.65582L15.0765 3.21117V6.05048C15.0765 6.47941 14.729 6.82688 14.3001 6.82688C13.8712 6.82688 13.5237 6.47941 13.5237 6.05048V3.21366L13.0847 3.65614L13.0837 3.6571C12.9372 3.80264 12.7394 3.88307 12.5335 3.88236C12.2187 3.88387 11.9337 3.69487 11.8133 3.40381C11.8133 3.40373 11.8134 3.40389 11.8133 3.40381M13.7498 0.788135L11.9833 2.55467L13.7498 0.788135ZM12.5335 3.88236C12.5332 3.88235 12.5329 3.88235 12.5326 3.88235L12.5334 3.69485L12.5346 3.88235C12.5342 3.88235 12.5339 3.88235 12.5335 3.88236ZM14.0142 1.05415C14.0141 1.05421 14.0142 1.05409 14.0142 1.05415L12.2479 2.82041L12.2473 2.82099C12.1315 2.93581 12.0969 3.10933 12.1596 3.25982C12.2216 3.40998 12.3692 3.50836 12.5323 3.50736L12.5343 3.50736C12.6414 3.50786 12.7434 3.4663 12.8189 3.39152C12.8191 3.39137 12.8188 3.39168 12.8189 3.39152L13.8987 2.30336V6.05048C13.8987 6.2723 14.0783 6.45188 14.3001 6.45188C14.5219 6.45188 14.7015 6.2723 14.7015 6.05048V2.30584L15.7757 3.38006C15.9347 3.51211 16.1691 3.50163 16.3153 3.3549C16.462 3.20867 16.473 2.97383 16.3409 2.81487L14.5802 1.05416C14.5801 1.05408 14.5803 1.05423 14.5802 1.05416C14.4237 0.898896 14.1706 0.898882 14.0142 1.05415ZM8.99975 2.32963C9.46246 2.32741 9.92452 2.34906 10.3852 2.39535C10.814 2.43998 11.1246 2.82412 11.08 3.25205C11.0354 3.68086 10.6513 3.99073 10.2234 3.9462C9.81703 3.90346 9.40895 3.88242 9.00022 3.88242C7.11493 3.88242 5.38172 4.34837 4.12593 5.08103C2.86394 5.81729 2.12134 6.79735 2.12096 7.81642C2.12167 7.89728 2.12708 7.97877 2.13716 8.05874C2.1857 8.45043 2.32643 8.82562 2.54716 9.15351L2.61481 9.24934C3.03632 9.80472 3.5716 10.264 4.18397 10.5968C4.18406 10.5968 4.18389 10.5967 4.18397 10.5968L4.25765 10.6365L4.31548 10.6654C5.76327 11.4052 7.37146 11.778 8.99712 11.752L9.0017 11.7519C10.6308 11.7656 12.2383 11.3784 13.6834 10.6249L13.6862 10.6234L13.7847 10.5742H13.8411C14.4478 10.2474 14.9801 9.7983 15.4036 9.25458L15.482 9.14256C15.6987 8.81577 15.8349 8.44313 15.8799 8.05414C15.8843 7.97872 15.8842 7.90401 15.8796 7.82857L15.8793 7.82317L15.8793 7.81776C15.8779 7.37882 15.7548 6.94922 15.5239 6.57571C15.3904 6.40074 15.3365 6.17675 15.3776 5.95966C15.4194 5.73906 15.5552 5.54712 15.7491 5.43374C15.9429 5.31974 16.1766 5.29691 16.3889 5.36863C16.5959 5.43859 16.7646 5.59263 16.8521 5.79337C17.2261 6.40195 17.4267 7.10165 17.4321 7.8158L17.4321 7.81722L17.4321 11.3452C17.4396 11.4765 17.4395 11.6071 17.4318 11.7384L17.4314 11.7454L17.4305 11.7523C17.338 12.4454 17.0705 13.1031 16.6535 13.6644C16.1045 14.4142 15.3986 15.0351 14.5851 15.4839L14.583 15.4851C12.8672 16.4028 10.9459 16.8683 9.00067 16.8382C7.05157 16.8787 5.12361 16.4215 3.40037 15.509L3.39752 15.5075C2.58382 15.0585 1.87779 14.4374 1.32873 13.6874C0.913061 13.1152 0.651187 12.4452 0.569429 11.7433L0.568201 11.7327C0.560511 11.6035 0.560699 11.4743 0.568169 11.3451V7.8172C0.568169 6.26105 1.52549 4.8843 3.04275 3.90543C4.5611 2.92585 6.65874 2.32971 8.99975 2.32963ZM10.3473 2.76843C9.8999 2.72349 9.45094 2.70245 9.00112 2.70463L9.00022 2.70463C6.71862 2.70463 4.69417 3.28627 3.24605 4.22054C1.79672 5.15558 0.943169 6.42886 0.943169 7.8172V11.3561L0.942838 11.3617C0.936023 11.4762 0.93592 11.5907 0.942529 11.7052C1.0175 12.3409 1.25476 12.9473 1.63144 13.466C2.14793 14.1715 2.81199 14.7558 3.57726 15.1784C5.24469 16.061 7.11026 16.503 8.99622 16.4632L9.00313 16.4631C10.8855 16.4927 12.7447 16.0428 14.405 15.155C15.1705 14.7324 15.8348 14.148 16.3513 13.4423L16.3521 13.4412C16.73 12.9327 16.9729 12.3372 17.0578 11.7096C17.0644 11.5934 17.0642 11.4778 17.0574 11.3615L17.0571 11.3561V7.81806C17.0521 7.16809 16.8682 6.53128 16.5257 5.97846L16.5176 5.96532L16.5117 5.95103C16.4677 5.84404 16.379 5.76112 16.2688 5.7239C16.1586 5.68666 16.0378 5.69896 15.9388 5.75721C15.8381 5.81608 15.7675 5.91587 15.746 6.02946C15.7245 6.14293 15.7535 6.26104 15.8255 6.35277L15.8318 6.36077L15.8372 6.3694C16.1071 6.80225 16.2517 7.30112 16.2543 7.81122C16.2595 7.90162 16.2594 7.99137 16.2539 8.0818L16.2533 8.09161C16.2021 8.54225 16.0443 8.97392 15.7931 9.35198L15.7905 9.35576L15.7027 9.4812C15.2365 10.0809 14.6473 10.5736 13.9752 10.9276L13.9342 10.9492H13.8732L13.8553 10.9581C12.3569 11.7392 10.6901 12.1408 9.00081 12.127C7.31497 12.1536 5.64721 11.7668 4.14556 10.9997C4.14532 10.9995 4.14508 10.9994 4.14484 10.9993L4.08233 10.9681L4.00582 10.9268C3.34573 10.5681 2.76816 10.0725 2.31405 9.47336L2.31021 9.46829L2.23732 9.36483C1.98319 8.98797 1.82102 8.55664 1.76508 8.10544C1.75312 8.01054 1.74676 7.91423 1.74597 7.81876L1.74596 7.8172C1.74596 6.60458 2.62282 5.52381 3.93695 4.75712C5.2576 3.98663 7.05777 3.50742 9.00022 3.50742C9.42178 3.50742 9.84272 3.5291 10.2623 3.57322C10.4851 3.59635 10.6839 3.43513 10.707 3.21323C10.7302 2.99051 10.5691 2.79168 10.3473 2.76843ZM8.24475 4.69212C8.32607 4.35031 8.63329 4.09623 9.00007 4.09623C9.36434 4.09623 9.66986 4.34684 9.75369 4.68513H10.7668C11.1957 4.68513 11.5432 5.0326 11.5432 5.46152C11.5432 5.89045 11.1957 6.23792 10.7668 6.23792H9.77646V7.0496C10.7675 7.14403 11.5432 7.97923 11.5432 8.9949C11.5432 10.0178 10.7565 10.8576 9.75539 10.9421C9.67406 11.2839 9.36685 11.538 9.00007 11.538C8.6358 11.538 8.33028 11.2874 8.24645 10.9491H7.23338C6.80445 10.9491 6.45698 10.6016 6.45698 10.1727C6.45698 9.74377 6.80445 9.3963 7.23338 9.3963H8.22367V8.58462C7.23265 8.49019 6.45698 7.65499 6.45698 6.63932C6.45698 5.61646 7.24367 4.77663 8.24475 4.69212ZM9.00007 4.47123C8.77825 4.47123 8.59867 4.65081 8.59867 4.87263V5.06013H8.41117C7.53936 5.06013 6.83198 5.76751 6.83198 6.63932C6.83198 7.51113 7.53936 8.2185 8.41117 8.2185H8.59867V9.7713H7.23338C7.01156 9.7713 6.83198 9.95087 6.83198 10.1727C6.83198 10.3945 7.01156 10.5741 7.23338 10.5741H8.59867V10.7616C8.59867 10.9834 8.77825 11.163 9.00007 11.163C9.22189 11.163 9.40146 10.9834 9.40146 10.7616V10.5741H9.58896C10.4608 10.5741 11.1682 9.86671 11.1682 8.9949C11.1682 8.12309 10.4608 7.41571 9.58896 7.41571H9.40146V5.86292H10.7668C10.9886 5.86292 11.1682 5.68334 11.1682 5.46152C11.1682 5.23971 10.9886 5.06013 10.7668 5.06013H9.40146V4.87263C9.40146 4.65081 9.22189 4.47123 9.00007 4.47123ZM8.22367 6.28426C8.09642 6.35155 8.00978 6.48524 8.00978 6.63932C8.00978 6.79339 8.09642 6.92709 8.22367 6.99438V6.28426ZM7.63478 6.63932C7.63478 6.21039 7.98225 5.86292 8.41117 5.86292H8.59867V7.41571H8.41117C7.98225 7.41571 7.63478 7.06824 7.63478 6.63932ZM9.40147 8.2185H9.58897C9.79447 8.2185 9.99242 8.29988 10.1382 8.44567M10.1382 8.44567C10.284 8.59145 10.3654 8.78941 10.3654 8.9949C10.3654 9.2004 10.284 9.39834 10.1382 9.54412M10.1382 9.54412C9.99241 9.6899 9.79447 9.77129 9.58897 9.77129H9.40147V8.2185M9.77647 8.63977C9.81178 8.65833 9.84439 8.68219 9.87302 8.71083C9.94807 8.78588 9.99036 8.88829 9.99036 8.9949C9.99036 9.10152 9.94808 9.20391 9.87303 9.27895C9.8444 9.30758 9.81178 9.33145 9.77647 9.35002V8.63977ZM1.74591 10.0993L2.06904 10.4379C2.18822 10.5627 2.31328 10.6822 2.45012 10.802L2.55972 10.8943C2.55987 10.8944 2.55957 10.8941 2.55972 10.8943C2.67429 10.9895 2.79506 11.0837 2.92115 11.1754L2.92339 11.177L3.06172 11.2807C3.22636 11.3942 3.39721 11.5024 3.58016 11.6111L3.75171 11.7026C5.37374 12.5347 7.17521 12.9565 8.99734 12.9298L9.00269 12.9297C10.8299 12.955 12.6359 12.5316 14.2612 11.6963C14.2613 11.6963 14.2611 11.6964 14.2612 11.6963L14.4044 11.6219C14.5912 11.5141 14.7619 11.4004 14.9381 11.2829L14.9427 11.2798L15.0796 11.1944C15.2067 11.1043 15.3261 11.0113 15.4374 10.9146L15.4396 10.9127L15.5501 10.8196C15.687 10.6998 15.812 10.5804 15.9312 10.4555L16.2544 10.117L16.2543 11.3449C16.2595 11.4352 16.2594 11.5248 16.2539 11.6151L16.2536 11.6211L16.2528 11.6269C16.1907 12.1254 16.002 12.5994 15.7057 13.0042L15.7035 13.0072C15.2456 13.607 14.6649 14.1022 14.0003 14.4601L13.9994 14.4606C12.4618 15.2774 10.7415 15.6905 9.00007 15.6603C7.26085 15.6898 5.54282 15.2766 4.00668 14.4606L4.00542 14.4599C3.34531 14.1028 2.76912 13.6098 2.31429 13.013L2.31334 13.0117C2.00844 12.6047 1.81352 12.1261 1.7475 11.6222L1.74667 11.6159L1.74627 11.6096C1.74076 11.5213 1.74064 11.4331 1.74591 11.3448V10.0993ZM2.12091 11.011V11.3564L2.12054 11.3622C2.11601 11.4348 2.11588 11.5073 2.12016 11.5799C2.17857 12.0172 2.34827 12.4327 2.61307 12.7864C3.03544 13.3404 3.57037 13.7981 4.1832 14.1297C5.66411 14.9163 7.32036 15.3142 8.99687 15.2853L9.00341 15.2852C10.6821 15.3148 12.3405 14.917 13.8228 14.1297C14.4399 13.7975 14.979 13.3378 15.4042 12.7812C15.6612 12.4297 15.8251 12.0186 15.88 11.5865C15.8843 11.5114 15.8842 11.437 15.8796 11.3619L15.8793 11.3562L15.8793 11.0287C15.8519 11.0535 15.824 11.0782 15.7957 11.103L15.7931 11.1053L15.6834 11.1976C15.683 11.198 15.6827 11.1983 15.6823 11.1986C15.5596 11.3051 15.4291 11.4065 15.2918 11.5036L15.2874 11.5067L15.1445 11.596C15.1443 11.5961 15.1447 11.5959 15.1445 11.596C14.9692 11.7129 14.7877 11.8339 14.5881 11.9488L14.5811 11.9529L14.4338 12.0293L14.433 12.0297C12.7538 12.8928 10.8879 13.3305 9.0002 13.3048C7.11698 13.332 5.25531 12.8957 3.57918 12.0356L3.57654 12.0342L3.3923 11.936C3.20088 11.8223 3.02064 11.708 2.84577 11.5873L2.83963 11.5831L2.69949 11.4778C2.567 11.3814 2.44052 11.2828 2.32001 11.1826L2.31909 11.1819L2.20449 11.0854C2.17619 11.0606 2.14836 11.0358 2.12091 11.011Z" fill="#4D4D4D"/>
</svg>
